<svg width="231" height="76" viewBox="0 0 154 51" fill="none" xmlns="http://www.w3.org/2000/svg">
<path d="M81.133 29.4785C81.133 30.5329 80.9536 31.4975 80.5946 32.3724C80.2581 33.2473 79.7309 33.9989 79.0131 34.627C78.3176 35.2551 77.4203 35.7487 76.3211 36.1076C75.2218 36.4441 73.9207 36.6124 72.4176 36.6124C70.6902 36.6124 69.1087 36.2759 67.6729 35.6029C66.2596 34.9074 65.0482 33.9764 64.0387 32.8099L66.5625 30.3534C67.3476 31.2059 68.2786 31.8901 69.3554 32.4061C70.4547 32.8996 71.5651 33.1464 72.6868 33.1464C75.9397 33.1464 77.5661 32.0023 77.5661 29.7141C77.5661 29.2654 77.4764 28.8616 77.2969 28.5027C77.1174 28.1437 76.8146 27.8184 76.3884 27.5268C75.9621 27.2127 75.4125 26.9211 74.7395 26.6519C74.0665 26.3827 73.2364 26.1023 72.2494 25.8106C70.9931 25.4517 69.9051 25.0815 68.9853 24.7002C68.0655 24.3188 67.3028 23.8813 66.6971 23.3878C66.0914 22.8718 65.6315 22.2549 65.3174 21.537C65.0258 20.8192 64.88 19.933 64.88 18.8787C64.88 17.8692 65.0819 16.9606 65.4857 16.153C65.8895 15.323 66.4391 14.6275 67.1345 14.0667C67.83 13.5058 68.6488 13.0796 69.591 12.788C70.5556 12.4739 71.5764 12.3169 72.6532 12.3169C74.2684 12.3169 75.6929 12.5973 76.9268 13.1581C78.1606 13.719 79.3047 14.5041 80.3591 15.5136L77.869 18.0374C77.1287 17.2747 76.3211 16.7138 75.4461 16.3549C74.5712 15.9735 73.5505 15.7828 72.384 15.7828C70.9931 15.7828 69.9836 16.0745 69.3554 16.6578C68.7497 17.241 68.4469 17.9252 68.4469 18.7104C68.4469 19.1142 68.5254 19.4844 68.6824 19.8209C68.8395 20.1349 69.1087 20.4378 69.49 20.7294C69.8714 20.9986 70.3986 21.2678 71.0716 21.537C71.7446 21.8062 72.5859 22.0867 73.5954 22.3783C74.7619 22.7372 75.8051 23.1074 76.7249 23.4888C77.6671 23.8701 78.4635 24.33 79.114 24.8684C79.7646 25.4068 80.2581 26.0462 80.5946 26.7865C80.9536 27.5268 81.133 28.4241 81.133 29.4785Z" fill="#282F4E"/>
<path d="M95.8637 23.657C95.1458 22.9167 94.4391 22.3783 93.7437 22.0418C93.0707 21.6829 92.3416 21.5034 91.5564 21.5034C90.2777 21.5034 89.2682 22.0306 88.5279 23.085C87.7876 24.1169 87.4174 25.5414 87.4174 27.3585C87.4174 28.2335 87.5072 29.0411 87.6866 29.7814C87.8661 30.4992 88.1353 31.1274 88.4942 31.6658C88.8532 32.1818 89.2906 32.5856 89.8066 32.8772C90.345 33.1688 90.9619 33.3146 91.6574 33.3146C92.4874 33.3146 93.1828 33.1352 93.7437 32.7762C94.327 32.3949 94.9663 31.8453 95.6618 31.1274L97.8827 33.3146C97.5462 33.7633 97.176 34.1896 96.7722 34.5934C96.3684 34.9747 95.9085 35.3224 95.3925 35.6365C94.899 35.9282 94.3382 36.1637 93.71 36.3432C93.0819 36.5226 92.364 36.6124 91.5564 36.6124C90.4796 36.6124 89.4701 36.3993 88.5279 35.973C87.6081 35.5243 86.8005 34.9074 86.1051 34.1223C85.4321 33.3146 84.8937 32.35 84.4899 31.2283C84.1085 30.1067 83.9178 28.8504 83.9178 27.4595C83.9178 26.0013 84.1197 24.7002 84.5235 23.5561C84.9273 22.412 85.4769 21.4473 86.1724 20.6621C86.8678 19.8545 87.6866 19.2488 88.6288 18.845C89.571 18.4188 90.5806 18.2057 91.6574 18.2057C92.9585 18.2057 94.1138 18.4637 95.1233 18.9796C96.1553 19.4732 97.0863 20.2135 97.9163 21.2005L95.8637 23.657Z" fill="#282F4E"/>
<path d="M115.866 27.3249C115.866 28.7831 115.664 30.0954 115.26 31.262C114.856 32.4061 114.295 33.3819 113.577 34.1896C112.859 34.9747 112.018 35.5804 111.054 36.0067C110.089 36.4105 109.035 36.6124 107.89 36.6124C106.769 36.6124 105.737 36.3993 104.795 35.973C103.852 35.5243 103.034 34.8962 102.338 34.0886C101.643 33.281 101.093 32.3164 100.689 31.1947C100.308 30.073 100.117 28.8167 100.117 27.4258C100.117 25.9901 100.319 24.7002 100.723 23.5561C101.127 22.412 101.676 21.4473 102.372 20.6621C103.09 19.8545 103.92 19.2488 104.862 18.845C105.827 18.4188 106.87 18.2057 107.991 18.2057C109.113 18.2057 110.156 18.43 111.121 18.8787C112.085 19.3049 112.916 19.9106 113.611 20.6958C114.329 21.481 114.878 22.4456 115.26 23.5897C115.664 24.7114 115.866 25.9564 115.866 27.3249ZM112.366 27.4258C112.366 25.6087 111.962 24.173 111.154 23.1186C110.369 22.0418 109.27 21.5034 107.857 21.5034C106.533 21.5034 105.49 22.0418 104.727 23.1186C103.987 24.173 103.617 25.5751 103.617 27.3249C103.617 29.2766 104.021 30.7684 104.828 31.8004C105.636 32.8099 106.701 33.3146 108.025 33.3146C108.676 33.3146 109.27 33.1576 109.808 32.8435C110.347 32.5295 110.807 32.1145 111.188 31.5985C111.57 31.0601 111.861 30.4319 112.063 29.7141C112.265 28.9962 112.366 28.2335 112.366 27.4258Z" fill="#282F4E"/>
<path d="M134.166 27.695C134.166 29.2205 133.976 30.5441 133.594 31.6658C133.213 32.765 132.697 33.6848 132.047 34.4251C131.418 35.1654 130.678 35.715 129.826 36.074C128.996 36.4329 128.121 36.6124 127.201 36.6124C126.304 36.6124 125.462 36.4105 124.677 36.0067C123.892 35.6029 123.253 35.1318 122.759 34.5934V40.9533L119.327 42.7367V18.5758H122.759V20.2583C123.41 19.6751 124.105 19.1927 124.845 18.8114C125.586 18.4076 126.427 18.2057 127.369 18.2057C128.311 18.2057 129.197 18.3851 130.027 18.7441C130.858 19.103 131.575 19.6638 132.181 20.4266C132.809 21.1893 133.292 22.1764 133.628 23.3878C133.987 24.5768 134.166 26.0125 134.166 27.695ZM130.701 27.796C130.701 25.5526 130.353 23.9262 129.657 22.9167C128.984 21.9072 128.008 21.4024 126.73 21.4024C125.9 21.4024 125.137 21.638 124.442 22.1091C123.746 22.5578 123.174 23.0737 122.725 23.657V31.0937C122.927 31.3629 123.174 31.6321 123.466 31.9013C123.757 32.1705 124.083 32.4173 124.442 32.6416C124.8 32.866 125.182 33.0567 125.586 33.2137C125.989 33.3483 126.416 33.4156 126.864 33.4156C128.121 33.4156 129.074 32.9557 129.725 32.0359C130.375 31.0937 130.701 29.6804 130.701 27.796Z" fill="#282F4E"/>
<path d="M152.03 27.0557C152.03 27.3698 152.019 27.6726 151.996 27.9642C151.974 28.2335 151.951 28.4578 151.929 28.6373H140.252C140.342 29.4897 140.522 30.2188 140.791 30.8245C141.06 31.4302 141.396 31.935 141.8 32.3388C142.204 32.7202 142.653 33.0118 143.146 33.2137C143.64 33.3932 144.156 33.4829 144.694 33.4829C145.435 33.4829 146.108 33.3595 146.713 33.1127C147.341 32.866 147.947 32.5183 148.53 32.0696L150.583 34.2905C149.798 35.0308 148.923 35.6029 147.958 36.0067C146.994 36.4105 145.838 36.6124 144.492 36.6124C143.46 36.6124 142.473 36.4105 141.531 36.0067C140.611 35.6029 139.804 35.0084 139.108 34.2232C138.413 33.438 137.863 32.4734 137.459 31.3293C137.056 30.1852 136.854 28.884 136.854 27.4258C136.854 25.9228 137.044 24.5992 137.426 23.4551C137.807 22.311 138.334 21.3576 139.007 20.5948C139.68 19.8097 140.488 19.2152 141.43 18.8114C142.395 18.4076 143.449 18.2057 144.593 18.2057C145.85 18.2057 146.938 18.4412 147.857 18.9123C148.8 19.3834 149.574 20.0228 150.179 20.8304C150.807 21.638 151.267 22.5802 151.559 23.657C151.873 24.7338 152.03 25.8667 152.03 27.0557ZM148.53 25.777C148.485 25.1713 148.373 24.5992 148.194 24.0608C148.037 23.5224 147.79 23.0513 147.454 22.6475C147.117 22.2437 146.691 21.9296 146.175 21.7053C145.681 21.4585 145.076 21.3351 144.358 21.3351C143.191 21.3351 142.26 21.7277 141.565 22.5129C140.892 23.2756 140.477 24.3637 140.32 25.777H148.53Z" fill="#282F4E"/>
<path fill-rule="evenodd" clip-rule="evenodd" d="M77.6945 17.8627C77.0022 17.1884 76.2528 16.6858 75.4461 16.3549C74.5712 15.9735 73.5504 15.7828 72.3839 15.7828C70.993 15.7828 69.9835 16.0745 69.3554 16.6577C68.7497 17.241 68.4468 17.9252 68.4468 18.7104C68.4468 19.1142 68.5253 19.4844 68.6824 19.8209C68.8394 20.1349 69.1086 20.4378 69.49 20.7294C69.8713 20.9986 70.3985 21.2678 71.0715 21.537C71.7445 21.8062 72.5858 22.0867 73.5953 22.3783C74.7619 22.7372 75.805 23.1074 76.7248 23.4888C77.667 23.8701 78.4634 24.33 79.114 24.8684C79.7645 25.4068 80.2581 26.0462 80.5946 26.7865C80.9535 27.5268 81.133 28.4241 81.133 29.4785C81.133 30.5329 80.9535 31.4975 80.5946 32.3724C80.2581 33.2473 79.7309 33.9989 79.013 34.627C78.3176 35.2551 77.4202 35.7487 76.321 36.1076C75.2217 36.4441 73.9206 36.6124 72.4176 36.6124C70.6902 36.6124 69.1086 36.2759 67.6729 35.6029C66.2595 34.9074 65.0481 33.9764 64.0386 32.8099L66.5624 30.3534C66.6182 30.414 66.6748 30.4738 66.7321 30.5327C67.4807 31.3023 68.3551 31.9268 69.3554 32.4061C70.4546 32.8996 71.5651 33.1464 72.6868 33.1464C75.9396 33.1464 77.566 32.0023 77.566 29.7141C77.566 29.2654 77.4763 28.8616 77.2968 28.5026C77.1174 28.1437 76.8145 27.8184 76.3883 27.5268C75.962 27.2127 75.4124 26.9211 74.7394 26.6519C74.0664 26.3827 73.2364 26.1023 72.2493 25.8106C70.993 25.4517 69.905 25.0815 68.9852 24.7002C68.0654 24.3188 67.3027 23.8813 66.697 23.3878C66.0913 22.8718 65.6314 22.2549 65.3173 21.537C65.0257 20.8192 64.8799 19.933 64.8799 18.8787C64.8799 17.8692 65.0818 16.9606 65.4856 16.153C65.8894 15.3229 66.439 14.6275 67.1345 14.0667C67.8299 13.5058 68.6487 13.0796 69.5909 12.788C70.5556 12.4739 71.5763 12.3169 72.6531 12.3169C74.2683 12.3169 75.6928 12.5973 76.9267 13.1581C78.0907 13.6872 79.1749 14.416 80.1792 15.3444C80.2394 15.4001 80.2994 15.4565 80.359 15.5136L77.8689 18.0374C77.8689 18.0374 77.8689 18.0374 77.8689 18.0374C77.8112 17.9779 77.753 17.9197 77.6945 17.8627ZM69.5162 12.5527C70.5065 12.2304 71.5526 12.07 72.6531 12.07C74.2969 12.07 75.7574 12.3554 77.0288 12.9334C78.2899 13.5066 79.4568 14.3081 80.5298 15.3353L80.7108 15.5086L77.8674 18.3904L77.6917 18.2093C76.9721 17.4679 76.1922 16.9278 75.3524 16.5833L75.3474 16.5813C74.5097 16.2161 73.5239 16.0297 72.3839 16.0297C71.0199 16.0297 70.0864 16.3169 69.525 16.8371C68.9649 17.3772 68.6937 17.9981 68.6937 18.7104C68.6937 19.0801 68.7651 19.4132 68.9047 19.7134C69.0397 19.982 69.2777 20.2557 69.6362 20.5304C69.9954 20.7833 70.5018 21.0432 71.1632 21.3078C71.8261 21.573 72.659 21.8508 73.6638 22.1411L73.6679 22.1423C74.8399 22.5029 75.8903 22.8755 76.8184 23.2603C77.779 23.6492 78.598 24.121 79.2714 24.6782C79.9488 25.2389 80.4655 25.907 80.8181 26.6816C81.1963 27.463 81.3799 28.3983 81.3799 29.4785C81.3799 30.5603 81.1958 31.5564 80.824 32.4636C80.473 33.3749 79.9231 34.1583 79.1771 34.8115C78.4509 35.467 77.5215 35.9753 76.3976 36.3423L76.3933 36.3437C75.2647 36.6892 73.938 36.8592 72.4176 36.8592C70.6572 36.8592 69.0395 36.5161 67.5681 35.8264L67.5638 35.8244C66.1215 35.1147 64.8835 34.1635 63.8519 32.9714L63.6996 32.7954L66.5721 29.9995L66.744 30.1862C67.5066 31.0141 68.411 31.6794 69.4592 32.1821C70.5282 32.6616 71.6034 32.8995 72.6868 32.8995C74.2918 32.8995 75.4515 32.6159 76.2042 32.0864C76.941 31.568 77.3192 30.7918 77.3192 29.7141C77.3192 29.2991 77.2364 28.9338 77.076 28.6131C76.92 28.3009 76.6502 28.0051 76.2489 27.7305L76.2453 27.7281L76.2418 27.7255C75.8374 27.4275 75.3079 27.1452 74.6477 26.8811C73.9843 26.6157 73.1624 26.3378 72.1803 26.0477C70.9181 25.687 69.8211 25.314 68.8907 24.9282C67.9545 24.54 67.1696 24.0913 66.5411 23.5792L66.5369 23.5758C65.9031 23.0359 65.4205 22.3887 65.0912 21.636L65.0898 21.633L65.0886 21.63C64.7815 20.874 64.633 19.9541 64.633 18.8787C64.633 17.8359 64.8417 16.8892 65.2642 16.0438C65.6833 15.1828 66.2552 14.4586 66.9795 13.8745C67.7012 13.2924 68.548 12.8526 69.5162 12.5527ZM95.8772 24.0257L95.6864 23.8289C94.9823 23.1028 94.2984 22.5845 93.6361 22.264L93.6317 22.2619L93.6274 22.2596C92.9913 21.9203 92.3022 21.7503 91.5563 21.7503C90.3588 21.7503 89.4244 22.2377 88.7299 23.2268L88.7284 23.2289C88.0287 24.2043 87.6642 25.5716 87.6642 27.3585C87.6642 28.2164 87.7522 29.0039 87.9263 29.7224C88.0996 30.4154 88.3579 31.0157 88.6982 31.5268C89.0366 32.0126 89.4458 32.3893 89.926 32.6611C90.4232 32.93 90.9981 33.0678 91.6573 33.0678C92.4512 33.0678 93.0973 32.8964 93.6095 32.569C94.1722 32.2009 94.7971 31.6651 95.4844 30.9556L95.6576 30.7768L98.2096 33.2901L98.0801 33.4628C97.7365 33.9209 97.3586 34.356 96.9467 34.7679L96.9442 34.7704L96.9417 34.7728C96.5242 35.1671 96.0503 35.5251 95.5208 35.8474L95.5181 35.8491C95.0041 36.1528 94.4234 36.3961 93.7778 36.5805C93.1231 36.7676 92.3817 36.8592 91.5563 36.8592C90.4459 36.8592 89.4016 36.6392 88.4261 36.1979L88.4228 36.1965L88.4196 36.1949C87.47 35.7317 86.6365 35.0947 85.9202 34.2859L85.9177 34.2831L85.9153 34.2803C85.2216 33.4478 84.6698 32.4571 84.2575 31.3119L84.256 31.3078C83.8646 30.1565 83.6709 28.8728 83.6709 27.4595C83.6709 25.9788 83.8759 24.6491 84.2906 23.4739C84.7032 22.305 85.2673 21.3119 85.9863 20.4998C86.7045 19.6661 87.5526 19.0381 88.5293 18.6191C89.5041 18.1784 90.5477 17.9588 91.6573 17.9588C92.9905 17.9588 94.1843 18.2231 95.2327 18.7583C96.299 19.2688 97.2562 20.032 98.1052 21.0416L98.2384 21.2L95.8772 24.0257ZM95.1233 18.9796C94.1138 18.4636 92.9584 18.2057 91.6573 18.2057C90.5805 18.2057 89.571 18.4188 88.6288 18.845C87.6866 19.2488 86.8677 19.8545 86.1723 20.6621C85.4769 21.4473 84.9272 22.4119 84.5234 23.5561C84.1196 24.7002 83.9177 26.0013 83.9177 27.4595C83.9177 28.8504 84.1084 30.1066 84.4898 31.2283C84.8936 32.35 85.432 33.3146 86.105 34.1222C86.8004 34.9074 87.608 35.5243 88.5278 35.973C89.47 36.3992 90.4795 36.6124 91.5563 36.6124C92.364 36.6124 93.0818 36.5226 93.71 36.3432C94.3381 36.1637 94.8989 35.9281 95.3925 35.6365C95.9085 35.3224 96.3683 34.9747 96.7721 34.5933C97.1759 34.1895 97.5461 33.7633 97.8826 33.3146L95.6617 31.1274C95.6037 31.1873 95.546 31.246 95.4888 31.3036C94.8599 31.9358 94.2782 32.4267 93.7436 32.7762C93.1828 33.1352 92.4873 33.3146 91.6573 33.3146C90.9619 33.3146 90.3449 33.1688 89.8065 32.8772C89.2906 32.5855 88.8531 32.1817 88.4942 31.6658C88.1352 31.1274 87.866 30.4992 87.6866 29.7814C87.5071 29.041 87.4174 28.2334 87.4174 27.3585C87.4174 25.5414 87.7875 24.1169 88.5278 23.0849C89.2681 22.0306 90.2776 21.5034 91.5563 21.5034C92.3415 21.5034 93.0706 21.6829 93.7436 22.0418C94.3826 22.351 95.0311 22.8307 95.6891 23.4808C95.7472 23.5382 95.8053 23.5969 95.8636 23.657L97.9163 21.2005C97.0862 20.2135 96.1552 19.4731 95.1233 18.9796ZM115.493 31.3427L115.493 31.3441C115.079 32.5147 114.503 33.5193 113.762 34.3536L113.759 34.3561C113.019 35.1663 112.149 35.7923 111.153 36.2325L111.149 36.2344C110.151 36.652 109.064 36.8592 107.89 36.8592C106.737 36.8592 105.67 36.6398 104.693 36.1979L104.688 36.1959C103.714 35.7322 102.868 35.0827 102.151 34.2497C101.434 33.4167 100.87 32.425 100.457 31.2783L100.455 31.2742C100.064 30.1229 99.8702 28.8392 99.8702 27.4258C99.8702 25.9671 100.075 24.6487 100.49 23.4739C100.903 22.3044 101.467 21.3109 102.187 20.4984L102.187 20.4981C102.927 19.6653 103.786 19.0375 104.763 18.6187C105.761 18.178 106.838 17.9588 107.991 17.9588C109.146 17.9588 110.224 18.1898 111.223 18.6538C112.218 19.094 113.076 19.72 113.794 20.5306C114.537 21.3436 115.102 22.3382 115.493 23.5088C115.907 24.6603 116.112 25.9332 116.112 27.3249C116.112 28.8057 115.907 30.146 115.493 31.3427ZM115.26 23.5897C114.878 22.4456 114.329 21.481 113.611 20.6958C112.915 19.9106 112.085 19.3049 111.121 18.8787C110.156 18.43 109.113 18.2057 107.991 18.2057C106.87 18.2057 105.826 18.4188 104.862 18.845C103.92 19.2488 103.09 19.8545 102.372 20.6621C101.676 21.4473 101.127 22.4119 100.723 23.5561C100.319 24.7002 100.117 25.9901 100.117 27.4258C100.117 28.8167 100.308 30.073 100.689 31.1947C101.093 32.3163 101.643 33.281 102.338 34.0886C103.033 34.8962 103.852 35.5243 104.795 35.973C105.737 36.3992 106.769 36.6124 107.89 36.6124C109.034 36.6124 110.089 36.4105 111.053 36.0067C112.018 35.5804 112.859 34.9747 113.577 34.1895C114.295 33.3819 114.856 32.4061 115.26 31.262C115.664 30.0954 115.865 28.7831 115.865 27.3249C115.865 25.9564 115.664 24.7114 115.26 23.5897ZM110.955 23.2641C110.219 22.2554 109.197 21.7503 107.857 21.7503C106.613 21.7503 105.645 22.2499 104.929 23.2609C104.227 24.2611 103.864 25.6083 103.864 27.3249C103.864 29.2467 104.262 30.6755 105.022 31.6473C105.781 32.5959 106.775 33.0678 108.025 33.0678C108.634 33.0678 109.185 32.9213 109.684 32.6303C110.192 32.334 110.626 31.9426 110.988 31.4537C111.35 30.9416 111.63 30.3405 111.825 29.6472C112.021 28.9528 112.119 28.2127 112.119 27.4258C112.119 25.6433 111.723 24.2666 110.958 23.2687L110.955 23.2641ZM111.188 31.5985C110.807 32.1144 110.347 32.5295 109.808 32.8435C109.27 33.1576 108.676 33.3146 108.025 33.3146C106.701 33.3146 105.636 32.8099 104.828 31.8004C104.021 30.7684 103.617 29.2766 103.617 27.3249C103.617 25.5751 103.987 24.173 104.727 23.1186C105.49 22.0418 106.533 21.5034 107.857 21.5034C109.27 21.5034 110.369 22.0418 111.154 23.1186C111.962 24.173 112.366 25.6087 112.366 27.4258C112.366 28.2334 112.265 28.9962 112.063 29.7141C111.861 30.4319 111.569 31.0601 111.188 31.5985ZM133.828 31.7452L133.828 31.7467C133.438 32.8699 132.908 33.8184 132.233 34.5864C131.582 35.3536 130.811 35.9266 129.922 36.3011C129.061 36.6733 128.153 36.8592 127.201 36.8592C126.265 36.8592 125.385 36.6483 124.564 36.2262C123.966 35.9186 123.446 35.5705 123.006 35.181V41.1032L119.08 43.1432V18.3289H123.006V19.7233C123.551 19.2817 124.125 18.9049 124.73 18.5932C125.51 18.1684 126.392 17.9588 127.369 17.9588C128.344 17.9588 129.263 18.1446 130.125 18.5175C130.995 18.8935 131.744 19.4801 132.373 20.2713C133.027 21.0661 133.522 22.0852 133.865 23.3191C134.233 24.5373 134.413 25.9976 134.413 27.695C134.413 29.2402 134.22 30.5918 133.828 31.7452ZM133.628 23.3878C133.292 22.1764 132.809 21.1893 132.181 20.4266C131.575 19.6638 130.857 19.103 130.027 18.7441C129.197 18.3851 128.311 18.2057 127.369 18.2057C126.427 18.2057 125.586 18.4076 124.845 18.8114C124.198 19.1449 123.585 19.5557 123.006 20.0436C122.923 20.1136 122.841 20.1852 122.759 20.2583V18.5758H119.327V42.7367L122.759 40.9533V34.5933C122.838 34.6791 122.92 34.7631 123.006 34.8454C123.46 35.2801 124.017 35.6672 124.677 36.0067C125.462 36.4105 126.303 36.6124 127.201 36.6124C128.121 36.6124 128.995 36.4329 129.826 36.074C130.678 35.715 131.418 35.1654 132.046 34.4251C132.697 33.6848 133.213 32.765 133.594 31.6658C133.976 30.5441 134.166 29.2205 134.166 27.695C134.166 26.0125 133.987 24.5768 133.628 23.3878ZM129.454 23.0568L129.452 23.0537C128.828 22.1171 127.931 21.6493 126.73 21.6493C125.95 21.6493 125.235 21.8697 124.58 22.3135L124.575 22.3166C123.927 22.7347 123.394 23.2102 122.972 23.742V31.0102C123.154 31.2445 123.374 31.4811 123.633 31.7199C123.913 31.978 124.226 32.2156 124.572 32.4323C124.916 32.6472 125.282 32.8302 125.669 32.9814C126.045 33.1059 126.443 33.1687 126.864 33.1687C128.051 33.1687 128.924 32.7398 129.522 31.8945C130.131 31.0124 130.454 29.6588 130.454 27.796C130.454 25.5667 130.106 24.003 129.454 23.0568ZM125.586 33.2137C125.182 33.0567 124.8 32.866 124.441 32.6416C124.083 32.4173 123.757 32.1705 123.466 31.9013C123.174 31.6321 122.927 31.3629 122.725 31.0937V23.657C123.174 23.0737 123.746 22.5578 124.441 22.1091C125.137 21.638 125.9 21.4024 126.73 21.4024C128.008 21.4024 128.984 21.9072 129.657 22.9167C130.353 23.9262 130.7 25.5526 130.7 27.796C130.7 29.6804 130.375 31.0937 129.725 32.0359C129.074 32.9557 128.121 33.4156 126.864 33.4156C126.416 33.4156 125.989 33.3483 125.586 33.2137ZM152.242 27.9832L152.242 27.9847C152.22 28.2559 152.197 28.4838 152.174 28.6679L152.147 28.8841H140.53C140.625 29.5997 140.789 30.2119 141.016 30.7242C141.275 31.3054 141.594 31.7829 141.972 32.1617C142.353 32.5207 142.774 32.7939 143.235 32.9833C143.7 33.1516 144.185 33.236 144.694 33.236C145.407 33.236 146.048 33.1173 146.62 32.8841L146.623 32.8829C147.228 32.6454 147.813 32.3097 148.38 31.8739L148.559 31.7364L150.93 34.3024L150.752 34.4701C149.946 35.2301 149.046 35.8188 148.054 36.2344C147.051 36.6539 145.862 36.8592 144.492 36.8592C143.427 36.8592 142.407 36.6506 141.434 36.2336L141.432 36.2327C140.478 35.8139 139.641 35.1976 138.923 34.3869C138.204 33.5745 137.639 32.5809 137.227 31.4114C136.812 30.2362 136.607 28.9065 136.607 27.4258C136.607 25.9025 136.8 24.5516 137.191 23.377C137.581 22.2079 138.123 21.2243 138.821 20.4328C139.518 19.6199 140.356 19.003 141.333 18.5844L141.335 18.5836C142.332 18.166 143.419 17.9588 144.593 17.9588C145.88 17.9588 147.008 18.2 147.969 18.6921C148.943 19.1791 149.746 19.842 150.375 20.6804C151.024 21.5151 151.497 22.4862 151.796 23.59C152.117 24.6899 152.277 25.8455 152.277 27.0557C152.277 27.3756 152.265 27.6848 152.242 27.9832ZM151.559 23.657C151.267 22.5802 150.807 21.638 150.179 20.8304C149.573 20.0228 148.799 19.3834 147.857 18.9123C146.938 18.4412 145.849 18.2057 144.593 18.2057C143.449 18.2057 142.395 18.4076 141.43 18.8114C140.488 19.2152 139.68 19.8097 139.007 20.5948C138.334 21.3576 137.807 22.311 137.426 23.4551C137.044 24.5992 136.854 25.9228 136.854 27.4258C136.854 28.884 137.056 30.1852 137.459 31.3293C137.863 32.4734 138.413 33.438 139.108 34.2232C139.804 35.0084 140.611 35.6029 141.531 36.0067C142.473 36.4105 143.46 36.6124 144.492 36.6124C145.838 36.6124 146.994 36.4105 147.958 36.0067C148.849 35.6338 149.663 35.1174 150.401 34.4575C150.416 34.4444 150.43 34.4313 150.445 34.4181C150.491 34.3762 150.537 34.3336 150.583 34.2905L148.53 32.0696C147.947 32.5182 147.341 32.866 146.713 33.1127C146.107 33.3595 145.434 33.4829 144.694 33.4829C144.156 33.4829 143.64 33.3932 143.146 33.2137C142.653 33.0118 142.204 32.7201 141.8 32.3388C141.396 31.935 141.06 31.4302 140.791 30.8245C140.548 30.2781 140.378 29.6313 140.281 28.8841C140.271 28.803 140.261 28.7207 140.252 28.6372H151.929C151.951 28.4578 151.974 28.2334 151.996 27.9642C152.019 27.6726 152.03 27.3698 152.03 27.0557C152.03 25.8667 151.873 24.7338 151.559 23.657ZM147.958 24.1344L147.957 24.1299C147.809 23.6219 147.577 23.1816 147.264 22.8055C146.954 22.4334 146.56 22.1418 146.076 21.9317L146.07 21.9291L146.064 21.9261C145.614 21.7008 145.048 21.582 144.358 21.582C143.253 21.582 142.393 21.9506 141.749 22.6766C141.163 23.3409 140.774 24.2846 140.599 25.5301H148.26C148.206 25.0415 148.106 24.5779 147.96 24.1389L147.958 24.1344ZM148.508 25.5301C148.517 25.6118 148.524 25.694 148.53 25.777H140.32C140.329 25.6935 140.339 25.6113 140.35 25.5301C140.527 24.2363 140.931 23.2306 141.565 22.5129C142.26 21.7277 143.191 21.3351 144.358 21.3351C145.076 21.3351 145.681 21.4585 146.175 21.7053C146.691 21.9296 147.117 22.2437 147.453 22.6475C147.79 23.0513 148.037 23.5224 148.194 24.0608C148.349 24.5255 148.453 25.0153 148.508 25.5301Z" fill="#282F4E"/>
<path fill-rule="evenodd" clip-rule="evenodd" d="M27.9794 50.8089C37.0316 50.8089 54.313 39.4349 54.313 25.4044C54.313 11.374 51.8442 0 27.9794 0C13.4358 0 0 7.40451 0 21.435C0 35.4655 13.4358 50.8089 27.9794 50.8089ZM19.3502 20.9728C19.3502 21.9467 18.5607 22.7362 17.5868 22.7362C16.6129 22.7362 15.8234 21.9467 15.8234 20.9728V14.2228C15.8234 13.0812 16.7488 12.1558 17.8904 12.1558H19.3502H22.877H24.6404C25.6143 12.1558 26.4039 12.9453 26.4039 13.9192C26.4039 14.8931 25.6144 15.6826 24.6404 15.6826H21.4172C20.2756 15.6826 19.3502 16.608 19.3502 17.7496V20.9728ZM38.4441 12.1558C39.5857 12.1558 40.5111 13.0812 40.5111 14.2228V20.9728C40.5111 21.9467 39.7216 22.7362 38.7477 22.7362C37.7738 22.7362 36.9843 21.9467 36.9843 20.9728V19.2094V17.7496C36.9843 16.608 36.0589 15.6826 34.9173 15.6826H31.6941C30.7202 15.6826 29.9307 14.8931 29.9307 13.9192C29.9307 12.9453 30.7202 12.1558 31.6941 12.1558H38.4441ZM38.7477 26.2631C39.7216 26.2631 40.5111 27.0526 40.5111 28.0265V34.7765C40.5111 35.9181 39.5857 36.8435 38.4441 36.8435H31.6941C30.7202 36.8435 29.9307 36.054 29.9307 35.0801C29.9307 34.1062 30.7202 33.3167 31.6941 33.3167H34.9173C36.0589 33.3167 36.9843 32.3913 36.9843 31.2497V28.0265C36.9843 27.0526 37.7738 26.2631 38.7477 26.2631ZM17.5868 26.2631C18.5607 26.2631 19.3502 27.0526 19.3502 28.0265V31.2497C19.3502 32.3913 20.2756 33.3167 21.4172 33.3167H22.877H24.6404C25.6143 33.3167 26.4039 34.1062 26.4039 35.0801C26.4039 36.054 25.6143 36.8435 24.6404 36.8435H17.8904C16.7488 36.8435 15.8234 35.9181 15.8234 34.7765V29.7899V28.0265C15.8234 27.0526 16.6129 26.2631 17.5868 26.2631Z" fill="#4433D0"/>
</svg>
